<?xml version="1.0" encoding="UTF-8" standalone="no"?>
<!DOCTYPE svg PUBLIC "-//W3C//DTD SVG 1.1//EN" "http://www.w3.org/Graphics/SVG/1.1/DTD/svg11.dtd">
<svg width="100%" height="100%" viewBox="0 0 2273 3300" version="1.1"
    xmlns="http://www.w3.org/2000/svg"
    xmlns:xlink="http://www.w3.org/1999/xlink" xml:space="preserve"
    xmlns:serif="http://www.serif.com/" style="fill-rule:evenodd;clip-rule:evenodd;stroke-linecap:round;stroke-linejoin:round;stroke-miterlimit:1.5;">
    <g transform="matrix(1.97153,0,0,1.97153,-1318.64,-779.795)">
        <rect x="668.81" y="395.529" width="1152.57" height="1673.83" style="fill:rgb(235,235,235);stroke:black;stroke-width:2.11px;"/>
    </g>
    <g transform="matrix(1.97153,0,0,1.97153,-1318.64,-779.795)">
        <rect x="668.81" y="528.566" width="1152.57" height="385.439" style="fill:rgb(0,67,161);"/>
    </g>
    <g transform="matrix(1.97153,0,0,1.97153,-1318.64,-19.893)">
        <rect x="668.81" y="528.566" width="1152.57" height="385.439" style="fill:rgb(235,235,235);stroke:black;stroke-width:2.11px;"/>
    </g>
    <g transform="matrix(1.97153,0,0,1.97153,-1318.64,740.009)">
        <rect x="668.81" y="528.566" width="1152.57" height="385.439" style="fill:rgb(235,235,235);stroke:black;stroke-width:2.11px;"/>
    </g>
    <g transform="matrix(1.97153,0,0,1.97153,-1318.64,-779.795)">
        <rect x="668.81" y="395.529" width="1152.57" height="133.038"/>
    </g>
    <g transform="matrix(3.51348,0,0,3.51348,-2620.94,-1435.55)">
        <text x="804.061px" y="463.513px" style="font-family:'Arial-BoldMT', 'Arial', sans-serif;font-weight:700;font-size:50px;fill:white;">Minutes</text>
    </g>
    <g transform="matrix(3.51348,0,0,3.51348,-1642.86,-1435.55)">
        <text x="804.061px" y="463.513px" style="font-family:'Arial-BoldMT', 'Arial', sans-serif;font-weight:700;font-size:50px;fill:white;">Route</text>
    </g>
    <g transform="matrix(2.44514,0,0,2.44514,-1952.78,-1116.55)">
        <text x="1275px" y="793.633px" style="font-family:'Arial-BoldMT', 'Arial', sans-serif;font-weight:700;font-size:175px;fill:white;">M</text>
        <text x="1420.78px" y="793.633px" style="font-family:'Arial-BoldMT', 'Arial', sans-serif;font-weight:700;font-size:210.412px;fill:white;">15</text>
    </g>
    <g transform="matrix(2.44514,0,0,2.44514,-1952.78,-356.648)">
        <text x="1275px" y="793.633px" style="font-family:'Arial-BoldMT', 'Arial', sans-serif;font-weight:700;font-size:175px;">M</text>
        <text x="1420.78px" y="793.633px" style="font-family:'Arial-BoldMT', 'Arial', sans-serif;font-weight:700;font-size:210.412px;">15</text>
    </g>
    <g transform="matrix(2.44514,0,0,2.44514,-1952.78,403.254)">
        <text x="1275px" y="793.633px" style="font-family:'Arial-BoldMT', 'Arial', sans-serif;font-weight:700;font-size:175px;">M</text>
        <text x="1420.78px" y="793.633px" style="font-family:'Arial-BoldMT', 'Arial', sans-serif;font-weight:700;font-size:210.412px;">15</text>
    </g>
    <g transform="matrix(2.44514,0,0,2.44514,-1952.78,1163.16)">
        <text x="1275px" y="793.633px" style="font-family:'Arial-BoldMT', 'Arial', sans-serif;font-weight:700;font-size:175px;">M</text>
        <text x="1420.78px" y="793.633px" style="font-family:'Arial-BoldMT', 'Arial', sans-serif;font-weight:700;font-size:210.412px;">15</text>
    </g>
    <g transform="matrix(1.97153,0,0,1.97153,-1326.83,-797.302)">
        <rect x="808.218" y="627.689" width="275.244" height="204.953"/>
    </g>
    <g transform="matrix(1.97153,0,0,1.97153,-1326.83,-37.4)">
        <rect x="808.218" y="627.689" width="275.244" height="204.953"/>
    </g>
    <g transform="matrix(1.97153,0,0,1.97153,-1326.83,722.502)">
        <rect x="808.218" y="627.689" width="275.244" height="204.953"/>
    </g>
    <g transform="matrix(1.97153,0,0,1.97153,-1326.83,1482.4)">
        <rect x="808.218" y="627.689" width="275.244" height="204.953"/>
    </g>
    <g transform="matrix(1,0,0,1,-18.5228,-48.2587)">
        <text id="Time-1" serif:id="Time 1" x="561.078px" y="839.728px" style="font-family:'ArialMT', 'Arial', sans-serif;font-size:416.667px;fill:rgb(255,131,0);">1</text>
    </g>
    <g transform="matrix(1,0,0,1,-18.5228,711.643)">
        <text id="Time-2" serif:id="Time 2" x="561.078px" y="839.728px" style="font-family:'ArialMT', 'Arial', sans-serif;font-size:416.667px;fill:rgb(255,131,0);">2</text>
    </g>
    <g transform="matrix(1,0,0,1,-18.5228,1471.55)">
        <text id="Time-3" serif:id="Time 3" x="561.078px" y="839.728px" style="font-family:'ArialMT', 'Arial', sans-serif;font-size:416.667px;fill:rgb(255,131,0);">3</text>
    </g>
    <g transform="matrix(1,0,0,1,-18.5228,2231.45)">
        <text id="Time-4" serif:id="Time 4" x="561.078px" y="839.728px" style="font-family:'ArialMT', 'Arial', sans-serif;font-size:416.667px;fill:rgb(255,131,0);">4</text>
    </g>
</svg>
